name rise49.25peak52.1432fall72.8391.mot
datacolumns 19
datarows 33
range 9.91496000000000 9.96829300000000
endheader
time	ground_force1_vx	ground_force1_vy	ground_force1_vz	ground_force1_px	ground_force1_py	ground_force1_pz	ground_force2_vx	ground_force2_vy	ground_force2_vz	ground_force2_px	ground_force2_py	ground_force2_pz	ground_torque1_x	ground_torque1_y	ground_torque1_z	ground_torque2_x	ground_torque2_y	ground_torque2_z	
9.91496000000000	63.57796900000000	794.62494800000002	72.66947000000000	0.30599800000000	0.00000000000000	0.15197300000000	0.00000000000000	0.00000000000000	0.00000000000000	0.00000000000000	0.00000000000000	0.00000000000000	0.00000000000000	23.82856700000000	0.00000000000000	0.00000000000000	0.00000000000000	0.00000000000000	
9.91662700000000	63.00002900000000	797.34879300000000	72.66903100000000	0.30539500000000	0.00000000000000	0.15186400000000	0.00000000000000	0.00000000000000	0.00000000000000	0.00000000000000	0.00000000000000	0.00000000000000	0.00000000000000	23.87345900000000	0.00000000000000	0.00000000000000	0.00000000000000	0.00000000000000	
9.91829900000000	62.41627600000000	799.89861800000006	72.66242600000000	0.30481700000000	0.00000000000000	0.15175500000000	0.00000000000000	0.00000000000000	0.00000000000000	0.00000000000000	0.00000000000000	0.00000000000000	0.00000000000000	23.91892100000000	0.00000000000000	0.00000000000000	0.00000000000000	0.00000000000000	
9.91995800000000	61.82679100000000	802.27226399999995	72.64977300000000	0.30425900000000	0.00000000000000	0.15164800000000	0.00000000000000	0.00000000000000	0.00000000000000	0.00000000000000	0.00000000000000	0.00000000000000	0.00000000000000	23.96488900000000	0.00000000000000	0.00000000000000	0.00000000000000	0.00000000000000	
9.92162400000000	61.23161300000000	804.46788200000003	72.63113000000000	0.30372100000000	0.00000000000000	0.15154100000000	0.00000000000000	0.00000000000000	0.00000000000000	0.00000000000000	0.00000000000000	0.00000000000000	0.00000000000000	24.01126900000000	0.00000000000000	0.00000000000000	0.00000000000000	0.00000000000000	
9.92329800000000	60.63073900000000	806.48394099999996	72.60650200000001	0.30319900000000	0.00000000000000	0.15143600000000	0.00000000000000	0.00000000000000	0.00000000000000	0.00000000000000	0.00000000000000	0.00000000000000	0.00000000000000	24.05792700000000	0.00000000000000	0.00000000000000	0.00000000000000	0.00000000000000	
9.92496400000000	60.02413700000000	808.31924300000003	72.57584400000000	0.30269100000000	0.00000000000000	0.15133200000000	0.00000000000000	0.00000000000000	0.00000000000000	0.00000000000000	0.00000000000000	0.00000000000000	0.00000000000000	24.10470100000000	0.00000000000000	0.00000000000000	0.00000000000000	0.00000000000000	
9.92662800000000	59.41174300000000	809.97293400000001	72.53906600000001	0.30219400000000	0.00000000000000	0.15123000000000	0.00000000000000	0.00000000000000	0.00000000000000	0.00000000000000	0.00000000000000	0.00000000000000	0.00000000000000	24.15140000000000	0.00000000000000	0.00000000000000	0.00000000000000	0.00000000000000	
9.92829100000000	58.79347500000000	811.44450900000004	72.49603700000000	0.30170400000000	0.00000000000000	0.15112900000000	0.00000000000000	0.00000000000000	0.00000000000000	0.00000000000000	0.00000000000000	0.00000000000000	0.00000000000000	24.19780600000000	0.00000000000000	0.00000000000000	0.00000000000000	0.00000000000000	
9.92995700000000	58.16923000000000	812.73381900000004	72.44658800000001	0.30122000000000	0.00000000000000	0.15103000000000	0.00000000000000	0.00000000000000	0.00000000000000	0.00000000000000	0.00000000000000	0.00000000000000	0.00000000000000	24.24367700000000	0.00000000000000	0.00000000000000	0.00000000000000	0.00000000000000	
9.93162600000000	57.53889500000000	813.84108100000003	72.39052200000000	0.30073800000000	0.00000000000000	0.15093400000000	0.00000000000000	0.00000000000000	0.00000000000000	0.00000000000000	0.00000000000000	0.00000000000000	0.00000000000000	24.28874900000000	0.00000000000000	0.00000000000000	0.00000000000000	0.00000000000000	
9.93329800000000	56.90235000000000	814.76687400000003	72.32761200000000	0.30025600000000	0.00000000000000	0.15083900000000	0.00000000000000	0.00000000000000	0.00000000000000	0.00000000000000	0.00000000000000	0.00000000000000	0.00000000000000	24.33274300000000	0.00000000000000	0.00000000000000	0.00000000000000	0.00000000000000	
9.93496200000000	56.25947500000000	815.51214600000003	72.25761400000000	0.29976900000000	0.00000000000000	0.15074600000000	0.00000000000000	0.00000000000000	0.00000000000000	0.00000000000000	0.00000000000000	0.00000000000000	0.00000000000000	24.37536200000000	0.00000000000000	0.00000000000000	0.00000000000000	0.00000000000000	
9.93662900000000	55.61015200000000	816.07821200000001	72.18026399999999	0.29927700000000	0.00000000000000	0.15065600000000	0.00000000000000	0.00000000000000	0.00000000000000	0.00000000000000	0.00000000000000	0.00000000000000	0.00000000000000	24.41629800000000	0.00000000000000	0.00000000000000	0.00000000000000	0.00000000000000	
9.93829600000000	54.95427400000000	816.46675300000004	72.09528899999999	0.29877500000000	0.00000000000000	0.15056700000000	0.00000000000000	0.00000000000000	0.00000000000000	0.00000000000000	0.00000000000000	0.00000000000000	0.00000000000000	24.45523200000000	0.00000000000000	0.00000000000000	0.00000000000000	0.00000000000000	
9.93996400000000	54.29174400000000	816.67981299999997	72.00240900000000	0.29826100000000	0.00000000000000	0.15048200000000	0.00000000000000	0.00000000000000	0.00000000000000	0.00000000000000	0.00000000000000	0.00000000000000	0.00000000000000	24.49184200000000	0.00000000000000	0.00000000000000	0.00000000000000	0.00000000000000	
9.94162900000000	53.62248700000000	816.71979399999998	71.90134200000000	0.29773300000000	0.00000000000000	0.15039900000000	0.00000000000000	0.00000000000000	0.00000000000000	0.00000000000000	0.00000000000000	0.00000000000000	0.00000000000000	24.52580000000000	0.00000000000000	0.00000000000000	0.00000000000000	0.00000000000000	
9.94329400000000	52.94644800000000	816.58944899999995	71.79181100000000	0.29718600000000	0.00000000000000	0.15031800000000	0.00000000000000	0.00000000000000	0.00000000000000	0.00000000000000	0.00000000000000	0.00000000000000	0.00000000000000	24.55677800000000	0.00000000000000	0.00000000000000	0.00000000000000	0.00000000000000	
9.94495600000000	52.26359900000000	816.29187800000000	71.67354500000000	0.29662000000000	0.00000000000000	0.15024100000000	0.00000000000000	0.00000000000000	0.00000000000000	0.00000000000000	0.00000000000000	0.00000000000000	0.00000000000000	24.58445100000000	0.00000000000000	0.00000000000000	0.00000000000000	0.00000000000000	
9.94662800000000	51.57394100000000	815.83051100000000	71.54628400000000	0.29603000000000	0.00000000000000	0.15016600000000	0.00000000000000	0.00000000000000	0.00000000000000	0.00000000000000	0.00000000000000	0.00000000000000	0.00000000000000	24.60849900000000	0.00000000000000	0.00000000000000	0.00000000000000	0.00000000000000	
9.94829500000000	50.87750900000000	815.20910600000002	71.40978500000000	0.29541600000000	0.00000000000000	0.15009400000000	0.00000000000000	0.00000000000000	0.00000000000000	0.00000000000000	0.00000000000000	0.00000000000000	0.00000000000000	24.62861000000000	0.00000000000000	0.00000000000000	0.00000000000000	0.00000000000000	
9.94996000000000	50.17437400000000	814.43173200000001	71.26382599999999	0.29477400000000	0.00000000000000	0.15002400000000	0.00000000000000	0.00000000000000	0.00000000000000	0.00000000000000	0.00000000000000	0.00000000000000	0.00000000000000	24.64448300000000	0.00000000000000	0.00000000000000	0.00000000000000	0.00000000000000	
9.95162600000000	49.46464500000000	813.50275899999997	71.10820600000000	0.29410200000000	0.00000000000000	0.14995800000000	0.00000000000000	0.00000000000000	0.00000000000000	0.00000000000000	0.00000000000000	0.00000000000000	0.00000000000000	24.65583000000000	0.00000000000000	0.00000000000000	0.00000000000000	0.00000000000000	
9.95329400000000	48.74847200000000	812.42684099999997	70.94275200000000	0.29339800000000	0.00000000000000	0.14989500000000	0.00000000000000	0.00000000000000	0.00000000000000	0.00000000000000	0.00000000000000	0.00000000000000	0.00000000000000	24.66237900000000	0.00000000000000	0.00000000000000	0.00000000000000	0.00000000000000	
9.95496400000000	48.02604900000000	811.20890299999996	70.76731800000000	0.29266000000000	0.00000000000000	0.14983400000000	0.00000000000000	0.00000000000000	0.00000000000000	0.00000000000000	0.00000000000000	0.00000000000000	0.00000000000000	24.66387600000000	0.00000000000000	0.00000000000000	0.00000000000000	0.00000000000000	
9.95662700000000	47.29761400000000	809.85412299999996	70.58179199999999	0.29188700000000	0.00000000000000	0.14977700000000	0.00000000000000	0.00000000000000	0.00000000000000	0.00000000000000	0.00000000000000	0.00000000000000	0.00000000000000	24.66008700000000	0.00000000000000	0.00000000000000	0.00000000000000	0.00000000000000	
9.95829500000000	46.56344900000000	808.36791800000003	70.38609599999999	0.29107700000000	0.00000000000000	0.14972200000000	0.00000000000000	0.00000000000000	0.00000000000000	0.00000000000000	0.00000000000000	0.00000000000000	0.00000000000000	24.65079900000000	0.00000000000000	0.00000000000000	0.00000000000000	0.00000000000000	
9.95996000000000	45.82388400000000	806.75592300000005	70.18018600000001	0.29022800000000	0.00000000000000	0.14967100000000	0.00000000000000	0.00000000000000	0.00000000000000	0.00000000000000	0.00000000000000	0.00000000000000	0.00000000000000	24.63582400000000	0.00000000000000	0.00000000000000	0.00000000000000	0.00000000000000	
9.96162800000000	45.07929200000000	805.02397299999996	69.96405900000001	0.28934000000000	0.00000000000000	0.14962300000000	0.00000000000000	0.00000000000000	0.00000000000000	0.00000000000000	0.00000000000000	0.00000000000000	0.00000000000000	24.61500000000000	0.00000000000000	0.00000000000000	0.00000000000000	0.00000000000000	
9.96329400000000	44.33009500000000	803.17808900000000	69.73774800000000	0.28841100000000	0.00000000000000	0.14957700000000	0.00000000000000	0.00000000000000	0.00000000000000	0.00000000000000	0.00000000000000	0.00000000000000	0.00000000000000	24.58818900000000	0.00000000000000	0.00000000000000	0.00000000000000	0.00000000000000	
9.96496300000000	43.57675900000000	801.22445200000004	69.50132600000001	0.28744000000000	0.00000000000000	0.14953500000000	0.00000000000000	0.00000000000000	0.00000000000000	0.00000000000000	0.00000000000000	0.00000000000000	0.00000000000000	24.55528400000000	0.00000000000000	0.00000000000000	0.00000000000000	0.00000000000000	
9.96662500000000	42.81979600000000	799.16938400000004	69.25490700000000	0.28642700000000	0.00000000000000	0.14949600000000	0.00000000000000	0.00000000000000	0.00000000000000	0.00000000000000	0.00000000000000	0.00000000000000	0.00000000000000	24.51620400000000	0.00000000000000	0.00000000000000	0.00000000000000	0.00000000000000	
9.96829300000000	42.05975900000000	797.01933599999995	68.99864599999999	0.28537200000000	0.00000000000000	0.14945900000000	0.00000000000000	0.00000000000000	0.00000000000000	0.00000000000000	0.00000000000000	0.00000000000000	0.00000000000000	24.47089800000000	0.00000000000000	0.00000000000000	0.00000000000000	0.00000000000000	
